<?xml version="1.0" encoding="UTF-8"?>
<!DOCTYPE svg PUBLIC "-//W3C//DTD SVG 1.1//EN" "http://www.w3.org/Graphics/SVG/1.1/DTD/svg11.dtd">
<!-- Creator: CorelDRAW X7 -->
<svg xmlns="http://www.w3.org/2000/svg" xml:space="preserve" width="200px" height="200px" version="1.1" style="shape-rendering:geometricPrecision; text-rendering:geometricPrecision; image-rendering:optimizeQuality; fill-rule:evenodd; clip-rule:evenodd"
viewBox="0 0 200 200"
 xmlns:xlink="http://www.w3.org/1999/xlink">
 <defs>
  <style type="text/css">
   <![CDATA[
    .str0 {stroke:#2B2A29;stroke-width:0.4}
    .fil0 {fill:#94A5A9}
    .fil1 {fill:#2B2A29;fill-rule:nonzero}
   ]]>
  </style>
 </defs>
 <g id="Capa_x0020_1">
  <metadata id="CorelCorpID_0Corel-Layer"/>
  <ellipse class="fil0 str0" cx="98" cy="104" rx="85" ry="70"/>
  <path class="fil1" d="M52 80c0,8 0,16 0,24 0,7 -1,15 -2,23 -1,5 -1,8 1,9 1,2 3,3 7,3 0,1 0,2 0,4 -8,0 -16,0 -24,1 0,-2 1,-3 1,-5 3,0 6,-1 8,-2 1,-2 2,-5 3,-10 1,-7 2,-15 2,-22 0,-7 0,-14 0,-22 0,-1 0,-3 -1,-3 0,-1 -2,-1 -3,-1 -2,0 -3,0 -5,0 0,-2 0,-3 0,-5 7,0 13,0 20,0 2,9 5,18 7,26 3,9 4,17 6,26 3,-9 6,-17 9,-26 2,-9 5,-17 7,-26 6,0 12,0 19,0 0,2 0,3 0,5 -2,0 -3,0 -4,0 -2,0 -3,0 -4,1 0,0 0,1 0,3 0,8 0,16 0,25 0,8 -1,16 -2,24 0,2 0,3 1,4 0,0 1,0 3,0 1,0 3,0 4,0 0,2 0,3 0,5 -9,0 -17,0 -26,0 0,-1 0,-3 0,-4 2,0 4,0 5,0 2,0 3,-1 4,-1 0,-1 1,-2 1,-4 0,-9 1,-17 2,-26 0,-9 0,-17 0,-26 -3,10 -6,21 -9,31 -4,10 -8,20 -12,31 -1,0 -2,0 -3,0 -2,-10 -4,-20 -6,-31 -3,-10 -6,-20 -9,-31zm80 3c0,-2 0,-3 0,-3 -1,-1 -2,-1 -4,-1 -1,0 -3,0 -4,0 0,-2 0,-3 0,-5 8,0 17,0 25,0 0,2 0,3 0,5 -1,0 -3,0 -4,0 -1,0 -3,0 -3,1 -1,0 -1,1 -1,3 0,6 0,13 0,19 0,6 0,12 0,19 0,7 -2,12 -5,16 -3,4 -7,5 -13,5 -5,0 -9,-1 -12,-4 -2,-3 -4,-7 -3,-12 0,-3 1,-6 2,-8 2,-2 4,-3 6,-3 2,0 3,0 4,2 1,1 2,3 2,5 0,2 -1,3 -2,5 -1,1 -2,1 -4,1 -1,0 -1,0 -2,0 -1,0 -1,0 -1,0 0,0 0,0 -1,0 0,1 0,1 0,1 0,3 1,4 2,6 2,2 5,3 8,3 3,0 6,-2 7,-4 2,-2 3,-5 3,-10 0,-7 0,-14 0,-21 0,-6 0,-13 0,-20z"/>
 </g>
</svg>
